<mxfile host="app.diagrams.net" agent="Mozilla/5.0 (Windows NT 10.0; Win64; x64) AppleWebKit/537.36 (KHTML, like Gecko) Chrome/135.0.0.0 Safari/537.36 OPR/120.0.0.0" version="28.1.0">
  <diagram name="Page-1" id="6IUO_KZfUVC1XP-U97Pk">
    <mxGraphModel dx="1372" dy="743" grid="0" gridSize="10" guides="1" tooltips="1" connect="1" arrows="1" fold="1" page="1" pageScale="1" pageWidth="827" pageHeight="1169" background="light-dark(#FFFFFF,#FFFFFF)" math="0" shadow="0">
      <root>
        <mxCell id="0" />
        <mxCell id="1" parent="0" />
        <mxCell id="NvgQKn_1V785_ZZS92sJ-3" value="&lt;font style=&quot;color: light-dark(rgb(0, 0, 0), rgb(0, 0, 0));&quot;&gt;Web server VM&amp;nbsp;(Apache + Node Exporter)&lt;/font&gt;" style="ellipse;whiteSpace=wrap;html=1;aspect=fixed;fillColor=light-dark(#FFFFFF,#FFFFFF);perimeterSpacing=0;strokeColor=light-dark(#000000,#000000);" vertex="1" parent="1">
          <mxGeometry x="71" y="44" width="124" height="124" as="geometry" />
        </mxCell>
        <mxCell id="NvgQKn_1V785_ZZS92sJ-4" value="&lt;font style=&quot;color: light-dark(rgb(0, 0, 0), rgb(0, 0, 0));&quot;&gt;Monitoring VM&amp;nbsp;&lt;/font&gt;&lt;strong style=&quot;background-color: transparent; color: light-dark(rgb(0, 0, 0), rgb(255, 255, 255));&quot; data-end=&quot;906&quot; data-start=&quot;885&quot;&gt;&lt;font style=&quot;color: light-dark(rgb(0, 0, 0), rgb(0, 0, 0));&quot;&gt;Prometheus (9090),&amp;nbsp;&lt;/font&gt;&lt;/strong&gt;&lt;strong style=&quot;background-color: transparent; color: light-dark(rgb(0, 0, 0), rgb(255, 255, 255));&quot; data-end=&quot;941&quot; data-start=&quot;918&quot;&gt;&lt;font style=&quot;color: light-dark(rgb(0, 0, 0), rgb(0, 0, 0));&quot;&gt;Alertmanager (9093),&amp;nbsp;&lt;/font&gt;&lt;/strong&gt;&lt;strong style=&quot;background-color: transparent; color: light-dark(rgb(0, 0, 0), rgb(255, 255, 255));&quot; data-end=&quot;971&quot; data-start=&quot;953&quot;&gt;&lt;font style=&quot;color: light-dark(rgb(0, 0, 0), rgb(0, 0, 0));&quot;&gt;Grafana (3000)&lt;/font&gt;&lt;/strong&gt;" style="ellipse;whiteSpace=wrap;html=1;aspect=fixed;fillColor=light-dark(#FFFFFF,#FFFFFF);perimeterSpacing=0;strokeColor=light-dark(#000000,#000000);" vertex="1" parent="1">
          <mxGeometry x="234" y="26" width="124" height="124" as="geometry" />
        </mxCell>
        <mxCell id="NvgQKn_1V785_ZZS92sJ-5" value="&lt;font style=&quot;color: light-dark(rgb(0, 0, 0), rgb(0, 0, 0));&quot;&gt;Alerting&lt;/font&gt;&lt;div&gt;&lt;font style=&quot;color: light-dark(rgb(0, 0, 0), rgb(0, 0, 0));&quot;&gt;Email server&lt;/font&gt;&lt;/div&gt;" style="ellipse;whiteSpace=wrap;html=1;aspect=fixed;fillColor=light-dark(#FFFFFF,#FFFFFF);perimeterSpacing=0;strokeColor=light-dark(#000000,#000000);" vertex="1" parent="1">
          <mxGeometry x="410" y="29" width="124" height="124" as="geometry" />
        </mxCell>
        <mxCell id="NvgQKn_1V785_ZZS92sJ-6" value="Web server VM" style="points=[[0,0],[0.25,0],[0.5,0],[0.75,0],[1,0],[1,0.25],[1,0.5],[1,0.75],[1,1],[0.75,1],[0.5,1],[0.25,1],[0,1],[0,0.75],[0,0.5],[0,0.25]];outlineConnect=0;gradientColor=none;html=1;whiteSpace=wrap;fontSize=12;fontStyle=0;container=1;pointerEvents=0;collapsible=0;recursiveResize=0;shape=mxgraph.aws4.group;grIcon=mxgraph.aws4.group_on_premise;strokeColor=#7D8998;fillColor=none;verticalAlign=top;align=left;spacingLeft=30;fontColor=#5A6C86;dashed=0;" vertex="1" parent="1">
          <mxGeometry x="79" y="278" width="184" height="190" as="geometry" />
        </mxCell>
        <mxCell id="NvgQKn_1V785_ZZS92sJ-7" value="" style="whiteSpace=wrap;html=1;aspect=fixed;" vertex="1" parent="NvgQKn_1V785_ZZS92sJ-6">
          <mxGeometry x="25" y="55" width="80" height="80" as="geometry" />
        </mxCell>
      </root>
    </mxGraphModel>
  </diagram>
</mxfile>
